<?xml version="1.0" encoding="utf-8"?>
<!-- Generator: Adobe Illustrator 25.2.1, SVG Export Plug-In . SVG Version: 6.00 Build 0)  -->
<svg version="1.1" id="Layer_1" xmlns="http://www.w3.org/2000/svg" xmlns:xlink="http://www.w3.org/1999/xlink" x="0px" y="0px"
	 viewBox="0 0 662.8 197.4" style="enable-background:new 0 0 662.8 197.4;" xml:space="preserve">
<style type="text/css">
	.st0{fill:#5F5F5F;}
	.st1{fill:#FFA300;}
	.st2{clip-path:url(#SVGID_2_);}
	.st3{fill:#FF671D;}
</style>
<g id="surface1">
	<path class="st0" d="M292.2,185.2l-0.2,1v0c-0.9,4.8-3.4,6.6-6.2,6.6c-2.5,0-4.1-1.7-4.1-5.1c0-4.5,2.5-8.7,6.4-8.7
		C291.9,179.1,292.7,182.1,292.2,185.2 M293.5,178.3l-1-2.3c-1-0.7-3-1.2-4.7-1.2c-2.7,0-5,0.7-6.8,1.9l-94.7,0.7l92.9,0.8
		c-1.6,1.6-2.7,3.8-3.3,6.1l-65.9,0.5l65.6,0.8c-0.2,1-0.3,2.1-0.3,3.2c0,1,0.1,1.9,0.3,2.8l-41.6,0.6l42,0.7
		c1.2,2.9,3.7,4.5,7.5,4.5c2.1,0,4.1-0.5,5.4-1.4l2-2.3l-0.6,3.2h6.2l5.2-29.4h-6.2"/>
	<path class="st0" d="M318,183.6h-8.3c0.9-2.7,2.5-4.6,4.9-4.6c2.3,0,3.5,1.5,3.5,3.8C318,183.1,318,183.3,318,183.6 M314.9,174.7
		c-7.7,0-12.7,5.9-12.7,13.7c0,6.2,4.2,8.8,9.5,8.8c5.5,0,9.6-2.6,11.3-7.5h-6.2c-0.7,2-2.4,3.2-4.6,3.2c-2.1,0-3.6-1.2-3.6-4.4
		v-0.8h15c0.4-1.3,0.7-2.9,0.7-4.2C324.2,178.6,321.2,174.7,314.9,174.7"/>
	<path class="st0" d="M337.6,167.2h-6.2l-4,22.3c-0.4,2-0.5,3.3-0.5,4.4c0,2.2,1.5,3.1,4.5,3.1c1.4,0,2.4-0.1,3.4-0.2l0.7-4
		c-1.5,0.1-2.1-0.1-2.1-1.3c0-0.5,0.1-1.2,0.3-2.1"/>
	<path class="st0" d="M339,196.6h6.3l3.8-21.3h-6.3L339,196.6z"/>
	<path class="st0" d="M347.4,167.1c-2.5,0-3.8,1.8-3.8,3.6c0,1.7,1.1,2.7,2.9,2.7c2.5,0,3.8-1.9,3.8-3.7
		C350.3,168.1,349.2,167.1,347.4,167.1"/>
	<path class="st0" d="M367.9,175.3l-7.5,16.2l-2-16.2h-6.8l4.4,21.3h6.9l11.8-21.3"/>
	<path class="st0" d="M390,183.6h-8.5c0.9-2.7,2.6-4.6,5-4.6c2.4,0,3.6,1.5,3.6,3.8C390,183.1,390,183.3,390,183.6 M387.1,174.7
		c-7.7,0-12.7,5.9-12.7,13.7c0,6.2,4.2,8.8,9.5,8.8c5.4,0,9.6-2.6,11.3-7.5h-6.2c-0.7,2-2.4,3.2-4.6,3.2c-2.1,0-3.6-1.2-3.6-4.4
		v-0.8h14.9c0.4-1.3,0.7-2.9,0.7-4.2C396.4,178.6,393.4,174.7,387.1,174.7"/>
	<path class="st0" d="M410,176.4l-2.2,3l0.7-4h-6.3l-3.7,21.2h6.3l1.6-8.9c1.3-7,4.7-8.1,8.5-7.7l0.9-5.1c-0.5-0.1-0.9-0.2-1.6-0.2
		C412.9,174.7,411.2,175.3,410,176.4"/>
	<path class="st0" d="M438.2,175.5l0.1-0.7c0.1-0.5,0.2-1,0.4-1.7c0.5-1.4,1.8-2.2,3.6-2.2c0.4,0,0.9,0,1.3,0.2l0.8-4.2
		c-1-0.2-2.1-0.3-4.2-0.3c-3.8,0-6.5,2-7.5,6c-0.2,0.7-0.4,1.7-0.5,2.4l-0.1,0.6h-1.9l-0.7,4h1.9l-3,17.2h6.2l3-17.2h4.3l0.7-4"/>
	<path class="st0" d="M455.5,188.9L455.5,188.9c-0.5,2.6-2.6,4-4.3,4c-1.5,0-2.5-0.7-2.5-2.2c0-2.6,3-3.9,7.1-3.4L455.5,188.9z
		 M455,174.7c-5.2,0-9.5,2.8-10.4,7.6h5.9c0.5-2.1,1.8-3.3,3.9-3.3c1.7,0,2.4,1,2.4,2.2c0,0.7-0.1,1.4-0.2,2.1l0,0.2
		c-8.9-0.5-14.1,2.8-14.1,7.9c0,3.8,2.6,5.7,5.9,5.7c2,0,3.9-0.5,5.3-1.5l1.3-2.1l-0.1,3.1h6c0.1-2.4,0.3-3.8,0.6-5.4l1.1-6.4
		c0.4-2,0.6-3.2,0.6-4.4C463,177.2,460.8,174.7,455,174.7"/>
	<path class="st0" d="M475.7,178.9c1.5,0,2.3,1,2.5,2.8h6.1c-0.2-3.9-2.6-6.8-8.4-6.8c-6,0-9.1,3.1-9.1,6.8c0,3.5,2.2,4.9,5.6,6.1
		c3.5,1.2,4.5,2,4.5,3.4c0,1.5-1.2,2.2-2.8,2.2c-1.8,0-3.2-0.8-3.4-3.1h-6.2c0.2,4.4,3.5,7.1,9.4,7.1c5.6,0,9.6-2.6,9.6-6.9
		c0-3.3-1.8-5.1-6-6.4c-3.2-1.1-4.2-1.7-4.2-3.2C473.4,179.8,474.2,178.9,475.7,178.9"/>
	<path class="st0" d="M498.1,170.1h-6.2l-0.9,5.4h-3l-0.7,4h3l-1.7,9.8c-0.3,2-0.4,3.1-0.4,4c0,2.6,1.5,3.9,5.3,3.9
		c1.5,0,2.9-0.2,4.4-0.5l0.7-4c-2.7,0.4-3.9,0-3.9-1.8c0-0.7,0-1.2,0.3-2.4l1.6-9h4.3l0.7-4h-4.3"/>
	<path class="st0" d="M517.4,183.6h-8.4c0.9-2.7,2.6-4.6,4.9-4.6c2.3,0,3.5,1.5,3.5,3.8C517.4,183.1,517.4,183.3,517.4,183.6
		 M514.5,174.7c-7.6,0-12.6,5.9-12.6,13.7c0,6.2,4.2,8.8,9.4,8.8c5.4,0,9.5-2.6,11.2-7.5h-6.1c-0.7,2-2.4,3.2-4.6,3.2
		c-2.1,0-3.6-1.2-3.6-4.4v-0.8H523c0.4-1.3,0.7-2.9,0.7-4.2C523.7,178.6,520.7,174.7,514.5,174.7"/>
	<path class="st0" d="M626.7,194.8l-93.8-0.9l1-5.7l69-0.7l-68.7-0.8c0.8-3.4,2.1-5.2,3.7-6l41-0.4l-36.6-0.6l0.8-4.7
		c-0.5-0.1-0.9-0.2-1.5-0.2c-1.2,0-2.8,0.6-4.1,1.7l-2.1,3l0.7-4h-6.1l-3.6,21.2h6.1l0.2-1"/>
	<path class="st1" d="M457.4,123.6h-12.5c-0.5,0-1-0.4-1-0.9c0-0.1,0-0.2,0-0.2l7.1-39.5c0.2-0.5-0.1-1.1-0.7-1.2s-1.1,0.1-1.2,0.7
		L431.7,123c-0.2,0.4-0.5,0.6-0.9,0.6h-15.4c-0.5,0-0.9-0.4-0.9-0.9L411.4,82c0-0.5-0.4-1-0.9-1c-0.5,0-1,0.4-1,0.9l-7.1,40.8
		c-0.1,0.5-0.5,0.8-0.9,0.8h-12.4c-0.5,0-1-0.5-1-1c0,0,0-0.1,0-0.1l10.9-61.7c0.1-0.5,0.5-0.8,0.9-0.8h21.8c0.5,0,0.9,0.4,0.9,0.9
		l3,43.2c0.1,0.5,0.5,0.9,1.1,0.9c0.3,0,0.7-0.3,0.8-0.6l17.7-43.8c0.1-0.4,0.5-0.6,0.9-0.6h22.2c0.5,0,1,0.4,1,0.9
		c0,0.1,0,0.2,0,0.2l-10.9,61.7C458.3,123.3,457.9,123.7,457.4,123.6"/>
	<path class="st1" d="M524,86.6c0-10.2-5.2-17.2-14.8-17.2c-14,0-20.6,15.1-20.6,27.6c0,10.1,5.2,17.2,14.8,17.2
		C517.4,114.2,524,99.2,524,86.6 M539.3,86.3c0,22.7-15.1,38.6-36.7,38.6c-18.8,0-29.2-12-29.2-27.6c0-22.8,15.1-38.6,36.7-38.6
		C528.9,58.7,539.3,70.7,539.3,86.3"/>
	<path class="st1" d="M558.1,122.8l-10.7-61.7c-0.1-0.5,0.2-1,0.7-1.1c0.1,0,0.2,0,0.2,0H562c0.5,0,0.9,0.4,0.9,0.9l6.4,48.4
		c-0.1,0.5,0.3,1,0.8,1.1s1-0.3,1.1-0.8l23.9-49c0.2-0.3,0.5-0.6,0.9-0.6h13.2c0.5,0,1,0.3,1,0.9c0,0.2,0,0.4-0.1,0.6l-32.7,61.7
		c-0.2,0.3-0.5,0.5-0.9,0.5h-17.5C558.6,123.7,558.2,123.3,558.1,122.8"/>
	<g>
		<defs>
			<rect id="SVGID_1_" x="605" y="60" width="57.8" height="64"/>
		</defs>
		<clipPath id="SVGID_2_">
			<use xlink:href="#SVGID_1_"  style="overflow:visible;"/>
		</clipPath>
		<g class="st2">
			<path class="st1" d="M627.7,86.1h27.4c0.5,0,0.9,0.4,1,0.9c0,0.1,0,0.2,0,0.2l-1.6,9.3c-0.1,0.5-0.5,0.8-0.9,0.8h-28.2
				c-0.5,0-0.9,0.4-0.9,0.8l-2.2,13c-0.1,0.5,0.2,1,0.7,1.1c0.1,0,0.2,0,0.2,0h30.4c0.5,0,1,0.4,1,0.9c0,0.1,0,0.2,0,0.2l-1.7,9.4
				c-0.1,0.5-0.5,0.8-0.9,0.8h-45.1c-0.5,0-1-0.4-1-0.9c0-0.1,0-0.2,0-0.2l10.9-61.7c0.1-0.5,0.5-0.8,0.9-0.8h44.3
				c0.5,0,1,0.4,1,0.9c0,0.1,0,0.2,0,0.2l-1.7,9.3c-0.1,0.5-0.5,0.8-0.9,0.8h-30.2c-0.5,0-0.9,0.4-0.9,0.8l-2.3,12.9
				c-0.1,0.5,0.2,1,0.7,1.1C627.5,86.1,627.6,86.1,627.7,86.1"/>
		</g>
	</g>
	<path class="st3" d="M194,123.6h-41.1c-0.5,0-1-0.4-1-0.9c0-0.1,0-0.2,0-0.2l10.8-61.7c0.1-0.5,0.5-0.8,0.9-0.8h12.4
		c0.5,0,0.9,0.4,1,0.9c0,0.1,0,0.2,0,0.2l-8.6,49.2c-0.1,0.5,0.2,1,0.7,1.1c0.1,0,0.2,0,0.2,0h30c0.5,0,1,0.3,1,0.9
		c0,0.2,0,0.4-0.1,0.6l-5.4,10.2C194.7,123.5,194.4,123.7,194,123.6"/>
	<path class="st3" d="M312,123.6h-41.1c-0.5,0-0.9-0.4-1-0.9c0-0.1,0-0.2,0-0.2l10.9-61.7c0.1-0.5,0.5-0.8,0.9-0.8h12.4
		c0.5,0,1,0.4,1,0.9c0,0.1,0,0.2,0,0.2l-8.7,49.2c-0.1,0.5,0.2,1,0.7,1.1c0.1,0,0.2,0,0.2,0h30c0.5,0,1,0.3,1,0.9
		c0,0.2,0,0.4-0.1,0.6l-5.4,10.2C312.7,123.4,312.4,123.6,312,123.6"/>
	<path class="st3" d="M371.6,60.8c-0.1-0.5-0.5-0.8-0.9-0.8h-17.5c-0.4,0-0.7,0.2-0.9,0.5l-32.7,61.7c-0.3,0.4-0.2,1,0.3,1.3
		c0.2,0.1,0.4,0.2,0.6,0.1h13.2c0.4,0,0.7-0.2,0.9-0.5l2.1-4.2l12.9-26v-0.1l1.9-3.9l1.3-2.6l5.2-10.5c0.1-0.5,0.6-0.9,1.1-0.8
		c0.5,0.1,0.9,0.6,0.8,1.1l2.4,17c0.1,0.5-0.3,1-0.8,1.1c0,0-0.1,0-0.1,0h-7.8c-0.5,0-1,0.3-1.2,0.8l-4.3,8.6
		c-0.4,0.7-0.1,1.5,0.6,1.9c0.2,0.1,0.4,0.2,0.6,0.2h14.1c0.5,0,0.9,0.4,0.9,0.8l2.3,16.3c0.1,0.5,0.5,0.8,0.9,0.8h13.7
		c0.5,0,1-0.4,1-0.9c0-0.1,0-0.2,0-0.2"/>
	<path class="st3" d="M253.6,60.8c-0.1-0.5-0.5-0.8-0.9-0.8h-17.5c-0.4,0-0.7,0.2-0.9,0.5l-32.7,61.7c-0.3,0.5-0.1,1.1,0.4,1.3
		c0.1,0.1,0.3,0.1,0.5,0.1h13.2c0.4,0,0.7-0.2,0.9-0.5l0.9-1.9l14.1-28.3v0l1.4-2.7l0.7-1.5l6.4-12.8c0.1-0.5,0.6-0.9,1.1-0.8
		s0.9,0.6,0.8,1.1l2.4,17c0.1,0.5-0.3,1-0.8,1.1c0,0-0.1,0-0.1,0h-7.8c-0.5,0-1,0.3-1.2,0.8l-4.3,8.6c-0.3,0.7-0.1,1.5,0.6,1.9
		c0.2,0.1,0.4,0.1,0.6,0.1h14.1c0.5,0,0.9,0.4,0.9,0.8l2.3,16.3c0.1,0.5,0.5,0.8,0.9,0.8h13.7c0.5,0,1-0.4,1-0.9c0-0.1,0-0.2,0-0.2"
		/>
	<path class="st3" d="M141.6,25.6c-49.3,0-38.5,32.5-38.5,32.5C96.5,56,12.5,28.2,0.5,24.3c-0.2-0.1-0.4,0-0.5,0.3
		c0,0.1,0,0.3,0.1,0.4c1.2,1.4,3.7,4.2,7.6,8.5C8,33.8,8.4,34,8.8,34.2l1.2,0.4l69.6,22.8c0.4,0.1,0.7,0.4,0.9,0.8l3.8,6.4
		c0,0,0,0.1,0,0.1c0,0-0.1,0-0.1,0L16.3,42.4c-0.1,0-0.2,0-0.2,0.1c0,0.1,0,0.1,0,0.2c1.6,1.8,3.3,3.6,5,5.5
		c0.5,0.5,1.1,0.9,1.7,1.1l64.5,21.2c0.4,0.1,0.7,0.4,0.9,0.7l3.8,6.4c0,0,0,0.1,0,0.1c0,0-0.1,0-0.1,0L30.2,57.5
		c-0.1,0-0.2,0-0.2,0.1c0,0.1,0,0.1,0,0.2c1.9,2,3.9,4.1,5.8,6.1c0.2,0.2,0.5,0.4,0.9,0.5l58.2,19.1c0.5,0.2,1,0.5,1.3,1l3.7,6.2
		c0,0,0,0.1,0,0.1c0,0,0,0-0.1,0L45.6,73.1c-0.1,0-0.3,0-0.3,0.2c0,0.1,0,0.2,0.1,0.3c12.1,12,22.8,21.7,26.9,22l-38.8,87.2
		c-0.1,0.3,0,0.7,0.3,0.8c0.2,0.1,0.4,0.1,0.6-0.1c17.5-14.3,29.8-52.5,48.4-62.7c26.9-14.7,37.3-23.3,43.9-38
		c7.8-17.3,17.8-46.3,19.3-47.4c10.6-8.2,29.6-26.6,37.7-34.5c0.2-0.2,0.2-0.6,0-0.8c-0.2-0.2-0.5-0.2-0.7-0.1
		C171.8,7.3,143.1,25.6,141.6,25.6"/>
</g>
</svg>
